<?xml version="1.0" standalone="no"?>
<!DOCTYPE svg PUBLIC "-//W3C//DTD SVG 20010904//EN"
 "http://www.w3.org/TR/2001/REC-SVG-20010904/DTD/svg10.dtd">
<svg version="1.0" xmlns="http://www.w3.org/2000/svg"
 width="512.000000pt" height="512.000000pt" viewBox="0 0 512.000000 512.000000"
 preserveAspectRatio="xMidYMid meet">
<metadata>
Created by potrace 1.11, written by Peter Selinger 2001-2013
</metadata>
<g transform="translate(0.000000,512.000000) scale(0.100000,-0.100000)"
fill="#000000" stroke="none">
<path d="M2465 4526 c-22 -7 -508 -223 -1080 -480 -786 -352 -1047 -473 -1067
-496 -59 -64 -59 -156 0 -220 20 -23 287 -146 1092 -507 l1065 -478 85 0 85 0
865 389 c476 213 871 390 878 393 9 4 12 -58 12 -290 l0 -295 -24 -15 c-56
-37 -56 -37 -56 -626 l0 -541 160 0 160 0 0 541 c0 589 0 589 -56 626 l-24 15
0 332 0 331 111 49 c119 53 151 81 170 146 15 50 0 108 -39 150 -20 23 -286
146 -1091 506 -1039 466 -1067 477 -1135 481 -43 2 -87 -3 -111 -11z"/>
<path d="M1175 2728 c-26 -23 -27 -28 -81 -512 -29 -269 -54 -511 -54 -538 0
-190 309 -417 730 -537 268 -76 433 -96 790 -96 357 0 522 20 790 96 422 120
730 347 730 538 0 28 -25 270 -55 538 -54 481 -55 488 -80 511 -14 12 -34 22
-44 22 -9 0 -273 -115 -587 -256 -676 -304 -676 -304 -754 -304 -78 0 -78 0
-754 304 -314 141 -578 256 -587 256 -10 0 -30 -10 -44 -22z"/>
</g>
</svg>
